<svg id="Group_4437" data-name="Group 4437" xmlns="http://www.w3.org/2000/svg" xmlns:xlink="http://www.w3.org/1999/xlink" width="260" height="61.668" viewBox="0 0 260 61.668">
  <defs>
    <clipPath id="clip-path">
      <rect id="Rectangle_173" data-name="Rectangle 173" width="260" height="61.668" fill="none"/>
    </clipPath>
  </defs>
  <g id="Group_4432" data-name="Group 4432" clip-path="url(#clip-path)">
    <path id="Path_2126" data-name="Path 2126" d="M1062.239,69.747l-10.547-8.754a3.312,3.312,0,0,0-3.183-.584l-13.52,4.629A3.3,3.3,0,0,0,1032.8,67.6l-2.4,13.83a3.316,3.316,0,0,0,1.131,3.094l10.98,9.235a3.307,3.307,0,0,0,3.32.555l13.076-5.046a3.328,3.328,0,0,0,2.067-2.521l2.4-13.893a3.306,3.306,0,0,0-1.146-3.105m-26.776,10.3,1.612-9.294a2.565,2.565,0,0,1,1.7-1.993l9.113-3.12a2.625,2.625,0,0,1,.828-.137,2.584,2.584,0,0,1,1.641.592l7.091,5.882a2.572,2.572,0,0,1,.891,2.414l-1.623,9.357a2.57,2.57,0,0,1-1.6,1.956l-8.795,3.4a2.56,2.56,0,0,1-2.577-.429l-7.4-6.226a2.574,2.574,0,0,1-.88-2.4" transform="translate(-803.434 -46.966)" fill="#2ecc71"/>
    <path id="Path_2127" data-name="Path 2127" d="M759.026,99.756a10.746,10.746,0,0,0,20.353-4.814V92.314a16.349,16.349,0,1,1,5.606-12.321V94.942a16.351,16.351,0,0,1-30.966,7.333Zm20.353-19.763a10.745,10.745,0,1,0-10.745,10.744,10.749,10.749,0,0,0,10.745-10.744" transform="translate(-586.6 -49.625)" fill="#2ecc71"/>
    <path id="Path_2128" data-name="Path 2128" d="M262.924,63.633a16.352,16.352,0,1,0,10.744,28.676v4.029h5.606V79.987a16.364,16.364,0,0,0-16.35-16.354m0,27.1a10.745,10.745,0,1,1,10.744-10.745,10.751,10.751,0,0,1-10.744,10.745" transform="translate(-192.269 -49.618)" fill="#2ecc71"/>
    <path id="Path_2129" data-name="Path 2129" d="M526.815,63.7v5.666H523.2v-.009h-4.321a4.648,4.648,0,0,0-3.306,1.38,4.742,4.742,0,0,0-1.365,3.334V96.389h-5.605V74.071a10.418,10.418,0,0,1,3.009-7.336,10.225,10.225,0,0,1,7.268-3.036Z" transform="translate(-396.591 -49.67)" fill="#2ecc71"/>
    <path id="Path_2130" data-name="Path 2130" d="M433.736,63.7v5.666h-3.612v-.009h-4.33a4.656,4.656,0,0,0-3.306,1.38,4.742,4.742,0,0,0-1.366,3.334V96.389h-5.607V74.071a10.42,10.42,0,0,1,3.011-7.336,10.233,10.233,0,0,1,7.268-3.036Z" transform="translate(-324.003 -49.67)" fill="#2ecc71"/>
    <path id="Path_2131" data-name="Path 2131" d="M974.507,0a4.206,4.206,0,1,0,4.2,4.208A4.209,4.209,0,0,0,974.507,0" transform="translate(-756.6)" fill="#2ecc71"/>
    <path id="Path_2132" data-name="Path 2132" d="M982.273,63.634v29.9a.421.421,0,0,1,0,.07v2.733h-5.606v-32.7Z" transform="translate(-761.563 -49.619)" fill="#2ecc71"/>
    <path id="Path_2133" data-name="Path 2133" d="M928.806,0V3.613h0V46.72H923.2V3.613h0V0Z" transform="translate(-719.869 0)" fill="#2ecc71"/>
    <path id="Path_2134" data-name="Path 2134" d="M625.633,79.57c-.009-.28-.024-.559-.044-.837s-.048-.553-.084-.824-.079-.546-.125-.81v0c-.051-.269-.106-.533-.163-.793v0c-.125-.531-.269-1.044-.44-1.55a16.407,16.407,0,0,0-5.4-7.618h0c-.2-.159-.416-.319-.625-.471s-.432-.3-.654-.44c-.11-.073-.222-.143-.335-.209-.227-.137-.452-.269-.685-.392s-.467-.247-.7-.363a15.851,15.851,0,0,0-1.566-.654c-.218-.081-.438-.156-.661-.222-.253-.081-.515-.154-.775-.22s-.526-.13-.791-.183-.533-.1-.806-.145c-.405-.062-.813-.108-1.229-.139l-.416-.029c-.282-.015-.562-.022-.841-.022s-.562.007-.841.022l-.416.029c-.4.026-.8.073-1.183.132l-.119.018c-.22.035-.443.075-.661.119l-.163.033c-.2.044-.41.09-.608.141-.335.081-.665.178-.993.284-.088.026-.174.055-.26.086a15.714,15.714,0,0,0-1.846.751q-.357.175-.7.363h0c-.229.128-.46.255-.681.392-.115.066-.227.137-.339.209-.218.145-.436.289-.65.44h0c-.209.156-.421.313-.623.471h0a16.4,16.4,0,0,0-5.394,7.618c-.172.507-.317,1.02-.44,1.55v0c-.06.26-.112.524-.163.793v0c-.048.264-.09.537-.125.81s-.062.548-.086.824-.035.557-.042.837c0,.141,0,.282,0,.421s0,.282,0,.421c.007.28.022.562.042.837s.051.553.086.826.077.544.125.81v0c.051.269.1.535.163.8v0c.123.529.269,1.042.44,1.548a16.411,16.411,0,0,0,6.676,8.53h0a16.752,16.752,0,0,0,2.079,1.132c.123.055.244.11.37.161.24.1.489.2.738.291s.507.181.764.258.509.152.771.222a16.445,16.445,0,0,0,4.088.513h.022q.41,0,.819-.02a.4.4,0,0,1,.053,0c.148-.009.3-.02.44-.033.328-.026.65-.062.969-.108.112-.015.227-.031.339-.051.172-.026.339-.059.507-.09q.175-.033.35-.073.235-.046.456-.106c.271-.07.54-.143.808-.227.136-.042.277-.084.414-.132a.284.284,0,0,0,.062-.018c.253-.086.5-.181.751-.273.41-.163.806-.339,1.2-.531.128-.062.255-.128.385-.194s.269-.143.4-.218.24-.137.357-.207c.253-.148.5-.3.738-.463.119-.077.236-.159.352-.242a15.846,15.846,0,0,0,1.7-1.381c.108-.1.214-.2.319-.3.209-.207.416-.416.61-.634.1-.11.2-.218.3-.33l-.009-.009a16.26,16.26,0,0,0,2.464-3.757l-5.2-2.176a10.645,10.645,0,0,1-1.5,2.26l.007.007a10.741,10.741,0,0,1-18.487-4.235H625.4c.064-.379.121-.786.163-1.218.053-.531.075-1.117.075-1.579v-.015c0-.137,0-.273,0-.412m-26.717-2.381a10.743,10.743,0,0,1,20.742,0Z" transform="translate(-462.348 -49.622)" fill="#2ecc71"/>
    <path id="Path_2135" data-name="Path 2135" d="M45.291,38,45.158,58.52a4.847,4.847,0,0,1-2.364,4.113L25.229,73a4.809,4.809,0,0,1-4.9,0L2.364,62.359A4.829,4.829,0,0,1,0,58.187L.139,37.763a4.8,4.8,0,0,1,2.524-4.2l18.3-9.87a4.768,4.768,0,0,1,1.494-.512,4.821,4.821,0,0,1,3.214.59l17.23,10.049A4.809,4.809,0,0,1,45.291,38" transform="translate(0 -18.024)" fill="#2ecc71"/>
    <path id="Path_2136" data-name="Path 2136" d="M52.9,77.891a7.412,7.412,0,0,0-6.482,3.837,11.817,11.817,0,0,0-2.469-2.053l.271-1.817-5.469-1.731-.883,1.76c-.055,0-.112,0-.167,0a11.674,11.674,0,0,0-2.235.214l-1.075-1.623L29.168,78.84l.579,2.128a11.971,11.971,0,0,0-1.1,1.145l-2.2-.57-2.3,5.257,1.859,1.194a11.887,11.887,0,0,0-.123,1.713c0,.134,0,.269.009.4l-2.035,1.053,1.8,5.447,2.207-.357a11.355,11.355,0,0,0,.987,1.284l-.839,2.35,5.028,2.762L34.3,101.03a11.553,11.553,0,0,0,2.3.445l.758,1.854,5.585-1.3-.117-1.663a11.878,11.878,0,0,0,2.643-1.746v2.907h4.052V85.39a3.434,3.434,0,0,1,.989-2.412,3.363,3.363,0,0,1,2.39-1h3.13v.007h2.61v-4.1ZM37.7,97.475a7.767,7.767,0,1,1,7.768-7.768A7.77,7.77,0,0,1,37.7,97.475" transform="translate(-18.604 -59.361)" fill="#2c3e50"/>
    <path id="Path_2137" data-name="Path 2137" d="M165.9,173.325a2.244,2.244,0,1,1-2.244-2.244,2.244,2.244,0,0,1,2.244,2.244" transform="translate(-125.862 -133.402)" fill="#2c3e50"/>
  </g>
</svg>
